<?xml version="1.0" encoding="UTF-8"?>
<!DOCTYPE svg PUBLIC "-//W3C//DTD SVG 1.1//EN" "http://www.w3.org/Graphics/SVG/1.1/DTD/svg11.dtd">
<svg xmlns="http://www.w3.org/2000/svg" version="1.1" width="342px" height="316px" style="shape-rendering:geometricPrecision; text-rendering:geometricPrecision; image-rendering:optimizeQuality; fill-rule:evenodd; clip-rule:evenodd" xmlns:xlink="http://www.w3.org/1999/xlink">
<g><path style="opacity:0.034" fill="#fdf2d0" d="M 160.5,43.5 C 158.589,43.4257 157.422,42.4257 157,40.5C 156.765,33.1379 156.265,25.8046 155.5,18.5C 156.075,15.1353 156.742,11.8019 157.5,8.5C 158.665,7.41641 159.998,6.58308 161.5,6C 173.522,4.52806 185.522,4.3614 197.5,5.5C 199.321,7.4753 200.321,9.80863 200.5,12.5C 199.167,16.8333 197.833,21.1667 196.5,25.5C 198.456,28.671 199.789,32.171 200.5,36C 200.031,39.804 198.031,42.4707 194.5,44C 185.119,44.1926 175.786,44.6926 166.5,45.5C 164.343,44.9495 162.343,44.2829 160.5,43.5 Z"/></g>
<g><path style="opacity:0.859" fill="#ebab51" d="M 159.5,9.5 C 158.55,19.4478 158.216,29.4478 158.5,39.5C 157.342,30.0089 157.175,20.3422 158,10.5C 158.383,9.94404 158.883,9.61071 159.5,9.5 Z"/></g>
<g><path style="opacity:1" fill="#f3991f" d="M 193.5,41.5 C 182.125,42.3284 170.792,42.3284 159.5,41.5C 159.672,40.5084 159.338,39.8417 158.5,39.5C 158.216,29.4478 158.55,19.4478 159.5,9.5C 159.611,8.88258 159.944,8.38258 160.5,8C 172.14,6.56581 183.807,5.89914 195.5,6C 197.833,7.33333 198.833,9.33333 198.5,12C 197.179,16.3165 195.845,20.6498 194.5,25C 195.892,28.364 197.225,31.6974 198.5,35C 198.512,38.4852 196.845,40.6519 193.5,41.5 Z"/></g>
<g><path style="opacity:0.871" fill="#eaa951" d="M 159.5,41.5 C 170.792,42.3284 182.125,42.3284 193.5,41.5C 182.716,43.2034 171.716,43.8701 160.5,43.5C 160.167,42.8333 159.833,42.1667 159.5,41.5 Z"/></g>
<g><path style="opacity:0.212" fill="#fcd9e9" d="M 162.5,54.5 C 160.5,54.5 158.5,54.5 156.5,54.5C 158.5,51.8333 160.5,51.8333 162.5,54.5 Z"/></g>
<g><path style="opacity:0.027" fill="#fce1eb" d="M 162.5,54.5 C 165.5,55.5 167.5,57.5 168.5,60.5C 166.167,58.8333 164.167,56.8333 162.5,54.5 Z"/></g>
<g><path style="opacity:0.153" fill="#fcd4e1" d="M 155.5,54.5 C 151.519,60.4753 147.186,66.1419 142.5,71.5C 145.777,64.9068 150.11,59.2402 155.5,54.5 Z"/></g>
<g><path style="opacity:0.02" fill="#fbe8ef" d="M 168.5,60.5 C 169.833,60.5 170.5,61.1667 170.5,62.5C 169.5,62.1667 168.833,61.5 168.5,60.5 Z"/></g>
<g><path style="opacity:0.012" fill="#f7eff2" d="M 170.5,62.5 C 171.833,62.5 172.5,63.1667 172.5,64.5C 171.5,64.1667 170.833,63.5 170.5,62.5 Z"/></g>
<g><path style="opacity:1" fill="#e62051" d="M 155.5,54.5 C 155.833,54.5 156.167,54.5 156.5,54.5C 158.5,54.5 160.5,54.5 162.5,54.5C 164.167,56.8333 166.167,58.8333 168.5,60.5C 168.833,61.5 169.5,62.1667 170.5,62.5C 170.833,63.5 171.5,64.1667 172.5,64.5C 177.775,71.4439 183.775,77.7772 190.5,83.5C 191.167,83.5 191.5,83.8333 191.5,84.5C 192.167,85.8333 193.167,86.8333 194.5,87.5C 199.441,94.11 205.108,100.11 211.5,105.5C 212.5,105.833 213.167,106.5 213.5,107.5C 214.031,109.544 215.198,111.211 217,112.5C 218.139,116.421 217.305,119.754 214.5,122.5C 213.5,122.5 212.5,122.5 211.5,122.5C 202.827,122.334 194.16,122.5 185.5,123C 175.026,124.185 164.526,125.352 154,126.5C 149.982,126.362 145.982,126.028 142,125.5C 139.747,125.631 137.581,126.131 135.5,127C 136.167,127.333 136.833,127.667 137.5,128C 132.98,128.599 128.48,128.432 124,127.5C 121.175,128.438 118.342,129.438 115.5,130.5C 113.611,130.564 111.944,130.064 110.5,129C 111.38,127.644 111.714,126.144 111.5,124.5C 109.857,124.48 108.524,125.147 107.5,126.5C 106.223,124.37 106.723,122.704 109,121.5C 109.333,121.833 109.667,122.167 110,122.5C 110.44,120.134 110.94,117.801 111.5,115.5C 112.5,113.5 113.5,111.5 114.5,109.5C 115.906,109.027 116.573,108.027 116.5,106.5C 118.262,105.738 119.262,104.404 119.5,102.5C 122.933,99.3988 125.6,95.7321 127.5,91.5C 129.587,90.4154 130.92,88.7488 131.5,86.5C 132.906,86.0269 133.573,85.0269 133.5,83.5C 136.471,81.5574 138.471,78.8908 139.5,75.5C 141.262,74.7377 142.262,73.4044 142.5,71.5C 147.186,66.1419 151.519,60.4753 155.5,54.5 Z"/></g>
<g><path style="opacity:0.627" fill="#fcc9d7" d="M 172.5,64.5 C 179.225,70.2228 185.225,76.5561 190.5,83.5C 183.775,77.7772 177.775,71.4439 172.5,64.5 Z"/></g>
<g><path style="opacity:0.314" fill="#f9c3d2" d="M 142.5,71.5 C 142.262,73.4044 141.262,74.7377 139.5,75.5C 139.738,73.5956 140.738,72.2623 142.5,71.5 Z"/></g>
<g><path style="opacity:0.322" fill="#fac1d1" d="M 139.5,75.5 C 138.471,78.8908 136.471,81.5574 133.5,83.5C 135.016,80.4669 137.016,77.8003 139.5,75.5 Z"/></g>
<g><path style="opacity:0.137" fill="#fcd3e2" d="M 298.5,81.5 C 297.391,81.4431 296.391,81.1098 295.5,80.5C 287.353,79.1185 279.353,80.1185 271.5,83.5C 271.577,82.2502 272.244,81.4169 273.5,81C 279.779,79.4333 286.112,78.2667 292.5,77.5C 295.181,77.9324 297.181,79.2657 298.5,81.5 Z"/></g>
<g><path style="opacity:1" fill="#e62251" d="M 295.5,80.5 C 296.391,81.1098 297.391,81.4431 298.5,81.5C 299.828,85.1474 299.828,88.8141 298.5,92.5C 298.757,94.6924 299.757,96.3591 301.5,97.5C 303.288,100.228 303.788,103.228 303,106.5C 302.292,107.381 301.458,108.047 300.5,108.5C 297.421,108.74 294.421,108.407 291.5,107.5C 290.5,108 289.5,108.5 288.5,109C 288.833,109.333 289.167,109.667 289.5,110C 286.139,110.337 282.806,110.837 279.5,111.5C 278.073,110.144 276.74,109.478 275.5,109.5C 275.968,107.866 276.968,106.7 278.5,106C 277.751,104.266 277.251,102.433 277,100.5C 276.667,101.167 276.333,101.833 276,102.5C 275.667,98.1667 275.333,93.8333 275,89.5C 274.304,100.048 273.637,100.048 273,89.5C 274.205,88.9288 275.372,88.2621 276.5,87.5C 275.726,86.2888 274.893,86.2888 274,87.5C 274.176,84.3425 276.009,82.8425 279.5,83C 284.798,81.8407 290.131,81.0074 295.5,80.5 Z"/></g>
<g><path style="opacity:0.008" fill="#feebf3" d="M 191.5,84.5 C 193.5,84.5 194.5,85.5 194.5,87.5C 193.167,86.8333 192.167,85.8333 191.5,84.5 Z"/></g>
<g><path style="opacity:0.267" fill="#fbc8d6" d="M 133.5,83.5 C 133.573,85.0269 132.906,86.0269 131.5,86.5C 131.427,84.9731 132.094,83.9731 133.5,83.5 Z"/></g>
<g><path style="opacity:0.553" fill="#facbd9" d="M 194.5,87.5 C 200.892,92.89 206.559,98.89 211.5,105.5C 205.108,100.11 199.441,94.11 194.5,87.5 Z"/></g>
<g><path style="opacity:0.153" fill="#fcccdb" d="M 131.5,86.5 C 130.92,88.7488 129.587,90.4154 127.5,91.5C 128.08,89.2512 129.413,87.5846 131.5,86.5 Z"/></g>
<g><path style="opacity:0.416" fill="#f89fba" d="M 271.5,83.5 C 270.735,86.0961 270.401,88.7628 270.5,91.5C 269.539,89.7354 269.205,87.7354 269.5,85.5C 269.833,84.5 270.5,83.8333 271.5,83.5 Z"/></g>
<g><path style="opacity:0.031" fill="#fde1eb" d="M 298.5,81.5 C 299.117,81.6107 299.617,81.944 300,82.5C 300.272,87.5488 300.772,92.5488 301.5,97.5C 299.757,96.3591 298.757,94.6924 298.5,92.5C 299.828,88.8141 299.828,85.1474 298.5,81.5 Z"/></g>
<g><path style="opacity:0.227" fill="#fdcedc" d="M 127.5,91.5 C 125.6,95.7321 122.933,99.3988 119.5,102.5C 121.4,98.2679 124.067,94.6012 127.5,91.5 Z"/></g>
<g><path style="opacity:0.071" fill="#fde1ed" d="M 269.5,85.5 C 269.205,87.7354 269.539,89.7354 270.5,91.5C 270.842,97.5663 271.675,103.566 273,109.5C 274.167,110.667 275.333,111.833 276.5,113C 284.52,112.259 292.52,111.092 300.5,109.5C 299.152,110.601 297.652,111.601 296,112.5C 295.667,112.167 295.333,111.833 295,111.5C 288.659,113.501 282.159,114.334 275.5,114C 273.346,112.68 271.846,110.847 271,108.5C 270.529,101.953 269.695,95.4533 268.5,89C 268.514,87.6153 268.848,86.4486 269.5,85.5 Z"/></g>
<g><path style="opacity:1" fill="#dc2c55" d="M 295.5,80.5 C 290.131,81.0074 284.798,81.8407 279.5,83C 276.009,82.8425 274.176,84.3425 274,87.5C 274.893,86.2888 275.726,86.2888 276.5,87.5C 275.372,88.2621 274.205,88.9288 273,89.5C 273.637,100.048 274.304,100.048 275,89.5C 275.333,93.8333 275.667,98.1667 276,102.5C 276.333,101.833 276.667,101.167 277,100.5C 277.251,102.433 277.751,104.266 278.5,106C 276.968,106.7 275.968,107.866 275.5,109.5C 276.74,109.478 278.073,110.144 279.5,111.5C 282.806,110.837 286.139,110.337 289.5,110C 289.167,109.667 288.833,109.333 288.5,109C 289.5,108.5 290.5,108 291.5,107.5C 294.421,108.407 297.421,108.74 300.5,108.5C 300.5,108.833 300.5,109.167 300.5,109.5C 292.52,111.092 284.52,112.259 276.5,113C 275.333,111.833 274.167,110.667 273,109.5C 271.675,103.566 270.842,97.5663 270.5,91.5C 270.401,88.7628 270.735,86.0961 271.5,83.5C 279.353,80.1185 287.353,79.1185 295.5,80.5 Z"/></g>
<g><path style="opacity:0.125" fill="#fcdeea" d="M 301.5,97.5 C 303.922,98.6923 304.922,100.692 304.5,103.5C 305.099,106.886 303.766,108.886 300.5,109.5C 300.5,109.167 300.5,108.833 300.5,108.5C 301.458,108.047 302.292,107.381 303,106.5C 303.788,103.228 303.288,100.228 301.5,97.5 Z"/></g>
<g><path style="opacity:0.286" fill="#fbc9da" d="M 119.5,102.5 C 119.262,104.404 118.262,105.738 116.5,106.5C 116.738,104.596 117.738,103.262 119.5,102.5 Z"/></g>
<g><path style="opacity:0.259" fill="#fec7d8" d="M 116.5,106.5 C 116.573,108.027 115.906,109.027 114.5,109.5C 114.427,107.973 115.094,106.973 116.5,106.5 Z"/></g>
<g><path style="opacity:0.624" fill="#f2bacb" d="M 213.5,107.5 C 218.415,110.488 220.415,114.655 219.5,120C 217.922,121.094 216.255,121.928 214.5,122.5C 217.305,119.754 218.139,116.421 217,112.5C 215.198,111.211 214.031,109.544 213.5,107.5 Z"/></g>
<g><path style="opacity:0.11" fill="#f9cfdc" d="M 114.5,109.5 C 113.5,111.5 112.5,113.5 111.5,115.5C 110.5,116.167 109.5,116.833 108.5,117.5C 109.529,114.109 111.529,111.443 114.5,109.5 Z"/></g>
<g><path style="opacity:0.089" fill="#dff8f9" d="M 78.5,133.5 C 81.1985,133.534 83.6985,132.867 86,131.5C 87.5339,127.289 87.8673,122.956 87,118.5C 83.4041,114.944 79.5708,114.611 75.5,117.5C 75.9528,116.542 76.6195,115.708 77.5,115C 87.1666,113.669 90.9999,117.836 89,127.5C 88.1659,132.67 85.1659,135.337 80,135.5C 79.2828,134.956 78.7828,134.289 78.5,133.5 Z"/></g>
<g><path style="opacity:0.39" fill="#fdefcd" d="M 24.5,121.5 C 24.7956,118.538 26.4622,116.871 29.5,116.5C 43.5903,113.959 48.4236,119.626 44,133.5C 38.7573,137.752 32.9239,138.585 26.5,136C 22.3179,131.495 21.6512,126.662 24.5,121.5 Z"/></g>
<g><path style="opacity:1" fill="#e69e3a" d="M 39.5,118.5 C 35.1328,118.987 30.7995,119.653 26.5,120.5C 26.3345,124.514 26.5012,128.514 27,132.5C 27.5,133 28,133.5 28.5,134C 32.1516,134.499 35.8183,134.665 39.5,134.5C 27.5748,138.588 22.5748,134.255 24.5,121.5C 25.452,120.548 26.452,119.548 27.5,118.5C 31.6493,117.191 35.6493,117.191 39.5,118.5 Z"/></g>
<g><path style="opacity:1" fill="#f3991f" d="M 39.5,118.5 C 41.0174,118.511 42.1841,119.177 43,120.5C 43.6667,124.5 43.6667,128.5 43,132.5C 42.1841,133.823 41.0174,134.489 39.5,134.5C 35.8183,134.665 32.1516,134.499 28.5,134C 28,133.5 27.5,133 27,132.5C 26.5012,128.514 26.3345,124.514 26.5,120.5C 30.7995,119.653 35.1328,118.987 39.5,118.5 Z"/></g>
<g><path style="opacity:0.353" fill="#fcbfd4" d="M 108.5,117.5 C 108.262,119.404 107.262,120.738 105.5,121.5C 105.738,119.596 106.738,118.262 108.5,117.5 Z"/></g>
<g><path style="opacity:1" fill="#62beca" d="M 78.5,133.5 C 74.3628,128.913 73.3628,123.58 75.5,117.5C 79.5708,114.611 83.4041,114.944 87,118.5C 87.8673,122.956 87.5339,127.289 86,131.5C 83.6985,132.867 81.1985,133.534 78.5,133.5 Z"/></g>
<g><path style="opacity:0.016" fill="#dff8fa" d="M 75.5,117.5 C 73.3628,123.58 74.3628,128.913 78.5,133.5C 75.5849,133.087 73.7516,131.421 73,128.5C 72.3333,125.5 72.3333,122.5 73,119.5C 73.7083,118.619 74.5416,117.953 75.5,117.5 Z"/></g>
<g><path style="opacity:1" fill="#da365a" d="M 111.5,115.5 C 110.94,117.801 110.44,120.134 110,122.5C 109.667,122.167 109.333,121.833 109,121.5C 106.723,122.704 106.223,124.37 107.5,126.5C 108.524,125.147 109.857,124.48 111.5,124.5C 111.714,126.144 111.38,127.644 110.5,129C 111.944,130.064 113.611,130.564 115.5,130.5C 118.342,129.438 121.175,128.438 124,127.5C 128.48,128.432 132.98,128.599 137.5,128C 136.833,127.667 136.167,127.333 135.5,127C 137.581,126.131 139.747,125.631 142,125.5C 145.982,126.028 149.982,126.362 154,126.5C 164.526,125.352 175.026,124.185 185.5,123C 194.16,122.5 202.827,122.334 211.5,122.5C 179.359,126.028 147.026,129.028 114.5,131.5C 107.339,132.003 104.339,128.67 105.5,121.5C 107.262,120.738 108.262,119.404 108.5,117.5C 109.5,116.833 110.5,116.167 111.5,115.5 Z"/></g>
<g><path style="opacity:0.161" fill="#f7f8cb" d="M 53.5,116.5 C 63.9249,111.227 69.5915,114.561 70.5,126.5C 70.3518,129.63 69.0184,132.13 66.5,134C 61.0063,136.652 55.8397,136.485 51,133.5C 47.6667,128.167 47.6667,122.833 51,117.5C 51.6708,116.748 52.5041,116.414 53.5,116.5 Z"/></g>
<g><path style="opacity:1" fill="#c5d22b" d="M 53.5,116.5 C 65.1887,113.96 69.6887,118.627 67,130.5C 66.1667,131.333 65.3333,132.167 64.5,133C 50.5032,134.517 46.8365,129.017 53.5,116.5 Z"/></g>
<g><path style="opacity:0.037" fill="#fee6f0" d="M 211.5,122.5 C 212.5,122.5 213.5,122.5 214.5,122.5C 214.082,123.222 213.416,123.722 212.5,124C 179.543,126.99 146.376,130.157 113,133.5C 111.615,133.486 110.449,133.152 109.5,132.5C 111.415,132.784 113.081,132.451 114.5,131.5C 147.026,129.028 179.359,126.028 211.5,122.5 Z"/></g>
<g><path style="opacity:1" fill="#c5d224" d="M 285.5,133.5 C 285.157,135.483 285.824,136.817 287.5,137.5C 287.829,140.827 289.163,143.493 291.5,145.5C 292.362,150.445 294.362,154.779 297.5,158.5C 298.528,162.887 300.361,166.887 303,170.5C 303.497,172.81 303.663,175.143 303.5,177.5C 301.938,177.733 300.605,178.4 299.5,179.5C 284.958,177.34 270.292,176.006 255.5,175.5C 251.833,175.5 248.167,175.5 244.5,175.5C 241.857,172.66 241.024,169.327 242,165.5C 247.263,159.294 251.763,152.627 255.5,145.5C 261.007,138.381 266.674,131.214 272.5,124C 274.971,123.294 277.305,123.627 279.5,125C 281.902,127.671 283.902,130.505 285.5,133.5 Z"/></g>
<g><path style="opacity:0.098" fill="#f8c0d0" d="M 105.5,121.5 C 104.339,128.67 107.339,132.003 114.5,131.5C 113.081,132.451 111.415,132.784 109.5,132.5C 103.843,130.215 102.51,126.548 105.5,121.5 Z"/></g>
<g><path style="opacity:0.2" fill="#fbfbcf" d="M 285.5,133.5 C 283.902,130.505 281.902,127.671 279.5,125C 277.305,123.627 274.971,123.294 272.5,124C 266.674,131.214 261.007,138.381 255.5,145.5C 259.955,137.443 265.288,129.943 271.5,123C 279.648,121.63 284.315,125.13 285.5,133.5 Z"/></g>
<g><path style="opacity:0.573" fill="#eff1ba" d="M 285.5,133.5 C 286.674,134.514 287.34,135.847 287.5,137.5C 285.824,136.817 285.157,135.483 285.5,133.5 Z"/></g>
<g><path style="opacity:0.11" fill="#fafbd4" d="M 287.5,137.5 C 289.341,139.849 290.674,142.515 291.5,145.5C 289.163,143.493 287.829,140.827 287.5,137.5 Z"/></g>
<g><path style="opacity:0.165" fill="#fde4f1" d="M 83.5,142.5 C 79.5,142.5 75.5,142.5 71.5,142.5C 74.3257,141.657 77.3257,140.991 80.5,140.5C 82.0377,140.453 83.0377,141.12 83.5,142.5 Z"/></g>
<g><path style="opacity:0.906" fill="#d26a87" d="M 71.5,143.5 C 71.5,143.167 71.5,142.833 71.5,142.5C 75.5,142.5 79.5,142.5 83.5,142.5C 84.1667,142.5 84.5,142.833 84.5,143.5C 84.5,143.833 84.5,144.167 84.5,144.5C 84.1667,144.5 83.8333,144.5 83.5,144.5C 79.7016,143.517 75.7016,143.183 71.5,143.5 Z"/></g>
<g><path style="opacity:0.05" fill="#defafb" d="M 226.5,147.5 C 225.404,145.897 224.07,144.397 222.5,143C 182.162,142.875 141.828,143.375 101.5,144.5C 105.982,143.674 110.649,143.174 115.5,143C 148.511,142.513 181.511,141.68 214.5,140.5C 220.8,139.305 224.8,141.638 226.5,147.5 Z"/></g>
<g><path style="opacity:0.035" fill="#fee5f1" d="M 71.5,142.5 C 71.5,142.833 71.5,143.167 71.5,143.5C 65.509,143.966 59.509,144.299 53.5,144.5C 59.2614,142.943 65.2614,142.276 71.5,142.5 Z"/></g>
<g><path style="opacity:0.055" fill="#fde6ef" d="M 87.5,146.5 C 86.5,145.833 85.5,145.167 84.5,144.5C 84.5,144.167 84.5,143.833 84.5,143.5C 86.4373,142.805 87.4373,143.805 87.5,146.5 Z"/></g>
<g><path style="opacity:0.016" fill="#feedf7" d="M 52.5,144.5 C 49.5,145.167 46.5,145.833 43.5,146.5C 41.1667,146.5 38.8333,146.5 36.5,146.5C 41.5683,144.822 46.9016,144.156 52.5,144.5 Z"/></g>
<g><path style="opacity:1" fill="#e62151" d="M 83.5,144.5 C 83.8333,144.5 84.1667,144.5 84.5,144.5C 85.5,145.167 86.5,145.833 87.5,146.5C 87.5,146.833 87.5,147.167 87.5,147.5C 87.6665,156.839 87.4998,166.173 87,175.5C 86.0975,176.701 84.9308,177.535 83.5,178C 74.1918,179.165 64.8584,179.998 55.5,180.5C 48.8079,180.335 42.1413,180.668 35.5,181.5C 32.8906,181.559 30.5572,180.892 28.5,179.5C 28.1667,179.5 27.8333,179.5 27.5,179.5C 27.5,176.167 27.5,172.833 27.5,169.5C 27.3338,163.158 27.5005,156.825 28,150.5C 30.1135,148.267 32.6135,146.933 35.5,146.5C 35.8333,146.5 36.1667,146.5 36.5,146.5C 38.8333,146.5 41.1667,146.5 43.5,146.5C 56.9192,146.432 70.2525,145.765 83.5,144.5 Z"/></g>
<g><path style="opacity:1" fill="#5dbfcb" d="M 226.5,147.5 C 226.5,147.833 226.5,148.167 226.5,148.5C 226.59,163.682 227.257,178.682 228.5,193.5C 229.539,199.797 229.706,206.13 229,212.5C 228.623,213.942 227.79,214.942 226.5,215.5C 213.879,216.628 201.212,216.795 188.5,216C 187.099,215.59 185.766,215.09 184.5,214.5C 183.338,205.891 182.505,197.224 182,188.5C 178.04,173.617 168.874,168.283 154.5,172.5C 148.932,174.953 145.765,179.287 145,185.5C 144.666,195.516 144.166,205.516 143.5,215.5C 142.317,216.504 140.984,217.338 139.5,218C 127.121,218.793 114.788,218.627 102.5,217.5C 102.013,216.527 101.513,215.527 101,214.5C 99.77,192.822 98.77,171.155 98,149.5C 98.9973,147.677 100.164,146.01 101.5,144.5C 141.828,143.375 182.162,142.875 222.5,143C 224.07,144.397 225.404,145.897 226.5,147.5 Z"/></g>
<g><path style="opacity:1" fill="#d44262" d="M 71.5,143.5 C 75.7016,143.183 79.7016,143.517 83.5,144.5C 70.2525,145.765 56.9192,146.432 43.5,146.5C 46.5,145.833 49.5,145.167 52.5,144.5C 52.8333,144.5 53.1667,144.5 53.5,144.5C 59.509,144.299 65.509,143.966 71.5,143.5 Z"/></g>
<g><path style="opacity:0.078" fill="#f4b9c9" d="M 35.5,146.5 C 32.6135,146.933 30.1135,148.267 28,150.5C 27.5005,156.825 27.3338,163.158 27.5,169.5C 26.5104,163.69 26.1771,157.69 26.5,151.5C 27.8299,147.082 30.8299,145.415 35.5,146.5 Z"/></g>
<g><path style="opacity:0.094" fill="#f7f7c7" d="M 291.5,145.5 C 293.87,149.586 295.87,153.919 297.5,158.5C 294.362,154.779 292.362,150.445 291.5,145.5 Z"/></g>
<g><path style="opacity:0.02" fill="#e0f9fb" d="M 101.5,144.5 C 100.164,146.01 98.9973,147.677 98,149.5C 98.77,171.155 99.77,192.822 101,214.5C 101.513,215.527 102.013,216.527 102.5,217.5C 100.175,216.345 99.0082,214.345 99,211.5C 98.5707,193.813 97.7374,176.147 96.5,158.5C 96.6667,154.833 96.8333,151.167 97,147.5C 98.129,145.859 99.629,144.859 101.5,144.5 Z"/></g>
<g><path style="opacity:0.157" fill="#fcfdd6" d="M 297.5,158.5 C 299.654,162.136 301.821,165.802 304,169.5C 304.801,172.367 304.634,175.034 303.5,177.5C 303.663,175.143 303.497,172.81 303,170.5C 300.361,166.887 298.528,162.887 297.5,158.5 Z"/></g>
<g><path style="opacity:0.02" fill="#fde7f0" d="M 26.5,151.5 C 26.1771,157.69 26.5104,163.69 27.5,169.5C 27.5,172.833 27.5,176.167 27.5,179.5C 25.9779,174.252 25.3112,168.752 25.5,163C 25.5012,158.985 25.8345,155.151 26.5,151.5 Z"/></g>
<g><path style="opacity:0.216" fill="#fafbcc" d="M 255.5,145.5 C 251.763,152.627 247.263,159.294 242,165.5C 241.024,169.327 241.857,172.66 244.5,175.5C 242.983,175.489 241.816,174.823 241,173.5C 240.333,170.5 240.333,167.5 241,164.5C 245.854,158.098 250.687,151.765 255.5,145.5 Z"/></g>
<g><path style="opacity:0.494" fill="#fcd2e2" d="M 87.5,147.5 C 88.3176,155.736 88.9842,163.903 89.5,172C 88.8472,176.653 86.1805,179.32 81.5,180C 65.6205,181.135 49.7872,182.635 34,184.5C 32.5405,184.192 31.3739,183.525 30.5,182.5C 39.0439,182.629 47.3772,181.962 55.5,180.5C 64.8584,179.998 74.1918,179.165 83.5,178C 84.9308,177.535 86.0975,176.701 87,175.5C 87.4998,166.173 87.6665,156.839 87.5,147.5 Z"/></g>
<g><path style="opacity:0.055" fill="#daf7f8" d="M 184.5,214.5 C 183.883,214.389 183.383,214.056 183,213.5C 182.082,204.491 181.082,195.491 180,186.5C 175.63,174.397 167.13,169.73 154.5,172.5C 168.874,168.283 178.04,173.617 182,188.5C 182.505,197.224 183.338,205.891 184.5,214.5 Z"/></g>
<g><path style="opacity:1" fill="#c4cf3f" d="M 255.5,175.5 C 270.292,176.006 284.958,177.34 299.5,179.5C 295.689,180.645 291.689,180.812 287.5,180C 276.663,178.625 265.997,177.125 255.5,175.5 Z"/></g>
<g><path style="opacity:0.048" fill="#e4fcfd" d="M 226.5,148.5 C 228.006,163.307 228.673,178.307 228.5,193.5C 227.257,178.682 226.59,163.682 226.5,148.5 Z"/></g>
<g><path style="opacity:0.043" fill="#fce2ec" d="M 27.5,179.5 C 27.8333,179.5 28.1667,179.5 28.5,179.5C 29.1667,180.5 29.8333,181.5 30.5,182.5C 28.5,182.5 27.5,181.5 27.5,179.5 Z"/></g>
<g><path style="opacity:0.563" fill="#f5f7c0" d="M 244.5,175.5 C 248.167,175.5 251.833,175.5 255.5,175.5C 265.997,177.125 276.663,178.625 287.5,180C 291.689,180.812 295.689,180.645 299.5,179.5C 300.605,178.4 301.938,177.733 303.5,177.5C 302.075,181.304 299.242,182.971 295,182.5C 277.927,180.845 261.094,178.512 244.5,175.5 Z"/></g>
<g><path style="opacity:1" fill="#ce4361" d="M 28.5,179.5 C 30.5572,180.892 32.8906,181.559 35.5,181.5C 42.1413,180.668 48.8079,180.335 55.5,180.5C 47.3772,181.962 39.0439,182.629 30.5,182.5C 29.8333,181.5 29.1667,180.5 28.5,179.5 Z"/></g>
<g><path style="opacity:0.092" fill="#fefae4" d="M 31.5,191.5 C 37.3188,190.347 43.3188,190.181 49.5,191C 51.1412,192.129 52.1412,193.629 52.5,195.5C 51.5,194.833 50.5,194.167 49.5,193.5C 49.3893,192.883 49.056,192.383 48.5,192C 42.8431,191.501 37.1764,191.334 31.5,191.5 Z"/></g>
<g><path style="opacity:0.064" fill="#fceaf0" d="M 66.5,191.5 C 72.987,190.346 79.6536,190.179 86.5,191C 88.4257,191.422 89.4257,192.589 89.5,194.5C 88.3951,193.4 87.0618,192.733 85.5,192.5C 79.3554,191.51 73.0221,191.177 66.5,191.5 Z"/></g>
<g><path style="opacity:0.295" fill="#fce8bc" d="M 310.5,257.5 C 310.077,236.5 309.577,215.5 309,194.5C 308.617,193.944 308.117,193.611 307.5,193.5C 306.833,193.5 306.5,193.167 306.5,192.5C 285.004,191.337 263.337,191.171 241.5,192C 240.107,193.171 239.273,194.671 239,196.5C 238.501,201.155 238.334,205.821 238.5,210.5C 237.513,205.695 237.179,200.695 237.5,195.5C 238.944,191.375 241.944,189.375 246.5,189.5C 266.79,190.322 287.123,190.822 307.5,191C 310.027,193.574 311.194,196.74 311,200.5C 311.733,219.168 312.067,237.835 312,256.5C 311.617,257.056 311.117,257.389 310.5,257.5 Z"/></g>
<g><path style="opacity:0.495" fill="#fcdda1" d="M 31.5,192.5 C 31.5,192.167 31.5,191.833 31.5,191.5C 37.1764,191.334 42.8431,191.501 48.5,192C 49.056,192.383 49.3893,192.883 49.5,193.5C 43.5594,192.587 37.5594,192.254 31.5,192.5 Z"/></g>
<g><path style="opacity:0.361" fill="#f8c8d5" d="M 66.5,191.5 C 65.5,193.167 64.1667,194.5 62.5,195.5C 62.8333,193.167 64.1667,191.833 66.5,191.5 Z"/></g>
<g><path style="opacity:1" fill="#e99e39" d="M 31.5,192.5 C 37.5594,192.254 43.5594,192.587 49.5,193.5C 49.5,194.167 49.5,194.833 49.5,195.5C 43.2218,194.21 36.8885,194.21 30.5,195.5C 29.2458,198.976 28.5791,202.642 28.5,206.5C 26.4289,215.89 29.5956,219.557 38,217.5C 39.7618,217.944 39.5951,218.444 37.5,219C 41.0257,220.337 44.6924,220.837 48.5,220.5C 42.6812,221.653 36.6812,221.819 30.5,221C 29.3333,219.833 28.1667,218.667 27,217.5C 26.3333,211.167 26.3333,204.833 27,198.5C 27.5985,195.746 29.0985,193.746 31.5,192.5 Z"/></g>
<g><path style="opacity:1" fill="#de2752" d="M 66.5,191.5 C 73.0221,191.177 79.3554,191.51 85.5,192.5C 85.7706,194.43 86.7706,195.764 88.5,196.5C 86.4176,196.528 84.5843,195.861 83,194.5C 82.342,196.108 82.842,197.275 84.5,198C 83.6921,199.706 82.3588,200.539 80.5,200.5C 81.0522,198.669 81.0522,197.003 80.5,195.5C 76.0188,196.696 71.6854,197.696 67.5,198.5C 67.3077,202.749 66.3077,206.749 64.5,210.5C 64.3476,212.9 64.8476,215.234 66,217.5C 72.0758,218.476 78.2424,218.81 84.5,218.5C 78.3554,219.49 72.0221,219.823 65.5,219.5C 64.4955,218.317 63.6622,216.984 63,215.5C 62.5005,209.509 62.3338,203.509 62.5,197.5C 62.5,196.833 62.5,196.167 62.5,195.5C 64.1667,194.5 65.5,193.167 66.5,191.5 Z"/></g>
<g><path style="opacity:1" fill="#f4991c" d="M 306.5,192.5 C 306.5,193.167 306.833,193.5 307.5,193.5C 308.369,214.795 309.036,236.128 309.5,257.5C 308.317,258.504 306.984,259.338 305.5,260C 291.504,260.5 277.504,260.667 263.5,260.5C 257.158,260.666 250.825,260.5 244.5,260C 243.307,258.905 241.973,258.072 240.5,257.5C 240.333,236.497 240.5,215.497 241,194.5C 241.5,194 242,193.5 242.5,193C 263.831,192.5 285.164,192.333 306.5,192.5 Z"/></g>
<g><path style="opacity:1" fill="#db4e6f" d="M 85.5,192.5 C 87.0618,192.733 88.3951,193.4 89.5,194.5C 89.6662,200.509 89.4995,206.509 89,212.5C 88.7679,213.737 88.2679,214.737 87.5,215.5C 88.2597,209.196 88.593,202.863 88.5,196.5C 86.7706,195.764 85.7706,194.43 85.5,192.5 Z"/></g>
<g><path style="opacity:1" fill="#f4991c" d="M 49.5,195.5 C 50.1174,195.611 50.6174,195.944 51,196.5C 51.4996,203.492 51.6663,210.492 51.5,217.5C 50.8333,218.833 49.8333,219.833 48.5,220.5C 44.6924,220.837 41.0257,220.337 37.5,219C 39.5951,218.444 39.7618,217.944 38,217.5C 29.5956,219.557 26.4289,215.89 28.5,206.5C 28.5791,202.642 29.2458,198.976 30.5,195.5C 36.8885,194.21 43.2218,194.21 49.5,195.5 Z"/></g>
<g><path style="opacity:1" fill="#e71f50" d="M 88.5,196.5 C 88.593,202.863 88.2597,209.196 87.5,215.5C 87.1898,217.144 86.1898,218.144 84.5,218.5C 78.2424,218.81 72.0758,218.476 66,217.5C 64.8476,215.234 64.3476,212.9 64.5,210.5C 66.3077,206.749 67.3077,202.749 67.5,198.5C 71.6854,197.696 76.0188,196.696 80.5,195.5C 81.0522,197.003 81.0522,198.669 80.5,200.5C 82.3588,200.539 83.6921,199.706 84.5,198C 82.842,197.275 82.342,196.108 83,194.5C 84.5843,195.861 86.4176,196.528 88.5,196.5 Z"/></g>
<g><path style="opacity:0.918" fill="#e2aa5c" d="M 49.5,193.5 C 50.5,194.167 51.5,194.833 52.5,195.5C 52.5,202.833 52.5,210.167 52.5,217.5C 52.1667,217.5 51.8333,217.5 51.5,217.5C 51.6663,210.492 51.4996,203.492 51,196.5C 50.6174,195.944 50.1174,195.611 49.5,195.5C 49.5,194.833 49.5,194.167 49.5,193.5 Z"/></g>
<g><path style="opacity:0.019" fill="#feeef9" d="M 62.5,195.5 C 62.5,196.167 62.5,196.833 62.5,197.5C 61.5111,202.975 61.1778,208.642 61.5,214.5C 60.3475,208.681 60.1808,202.681 61,196.5C 61.3826,195.944 61.8826,195.611 62.5,195.5 Z"/></g>
<g><path style="opacity:0.02" fill="#fcdee7" d="M 89.5,194.5 C 90.6546,201.321 90.8213,208.321 90,215.5C 87.6594,219.178 84.3261,221.178 80,221.5C 75.628,221.481 71.628,221.481 68,221.5C 67.0053,220.934 66.172,220.267 65.5,219.5C 72.0221,219.823 78.3554,219.49 84.5,218.5C 86.1898,218.144 87.1898,217.144 87.5,215.5C 88.2679,214.737 88.7679,213.737 89,212.5C 89.4995,206.509 89.6662,200.509 89.5,194.5 Z"/></g>
<g><path style="opacity:0.027" fill="#d8f7f8" d="M 154.5,172.5 C 150.747,175.663 148.247,179.663 147,184.5C 146.378,194.17 145.711,203.836 145,213.5C 144.722,214.416 144.222,215.082 143.5,215.5C 144.166,205.516 144.666,195.516 145,185.5C 145.765,179.287 148.932,174.953 154.5,172.5 Z"/></g>
<g><path style="opacity:0.073" fill="#fef9d8" d="M 52.5,195.5 C 53.1174,195.611 53.6174,195.944 54,196.5C 54.8168,203.733 54.3168,210.733 52.5,217.5C 52.5,210.167 52.5,202.833 52.5,195.5 Z"/></g>
<g><path style="opacity:0.392" fill="#fbb1c7" d="M 62.5,197.5 C 62.3338,203.509 62.5005,209.509 63,215.5C 63.6622,216.984 64.4955,218.317 65.5,219.5C 63.0029,218.871 61.6696,217.204 61.5,214.5C 61.1778,208.642 61.5111,202.975 62.5,197.5 Z"/></g>
<g><path style="opacity:0.422" fill="#c7eef5" d="M 184.5,214.5 C 185.766,215.09 187.099,215.59 188.5,216C 201.212,216.795 213.879,216.628 226.5,215.5C 225.942,216.79 224.942,217.623 223.5,218C 211.833,218.667 200.167,218.667 188.5,218C 186.456,217.502 185.122,216.335 184.5,214.5 Z"/></g>
<g><path style="opacity:0.251" fill="#cdf5fc" d="M 143.5,215.5 C 143.586,216.496 143.252,217.329 142.5,218C 140.341,218.912 138.175,219.745 136,220.5C 125.243,219.679 114.41,219.179 103.5,219C 102.944,218.617 102.611,218.117 102.5,217.5C 114.788,218.627 127.121,218.793 139.5,218C 140.984,217.338 142.317,216.504 143.5,215.5 Z"/></g>
<g><path style="opacity:0.055" fill="#fcf2d0" d="M 31.5,191.5 C 31.5,191.833 31.5,192.167 31.5,192.5C 29.0985,193.746 27.5985,195.746 27,198.5C 26.3333,204.833 26.3333,211.167 27,217.5C 28.1667,218.667 29.3333,219.833 30.5,221C 36.6812,221.819 42.6812,221.653 48.5,220.5C 49.8333,219.833 50.8333,218.833 51.5,217.5C 51.8333,217.5 52.1667,217.5 52.5,217.5C 51.3699,221.701 48.5365,223.701 44,223.5C 39.1799,222.88 34.3466,222.38 29.5,222C 26.5777,220.163 24.911,217.496 24.5,214C 25.065,208.742 25.565,203.242 26,197.5C 26.6488,194.353 28.4821,192.353 31.5,191.5 Z"/></g>
<g><path style="opacity:0.031" fill="#fce5f1" d="M 228.5,230.5 C 224.287,227.97 219.62,226.97 214.5,227.5C 207.809,227.669 201.142,228.169 194.5,229C 193.944,229.383 193.611,229.883 193.5,230.5C 192.833,230.5 192.167,230.5 191.5,230.5C 191.953,229.542 192.619,228.708 193.5,228C 195.433,227.749 197.266,227.249 199,226.5C 207.689,226.418 216.522,226.584 225.5,227C 227.426,227.422 228.426,228.589 228.5,230.5 Z"/></g>
<g><path style="opacity:0.024" fill="#fde9f2" d="M 140.5,228.5 C 140.5,228.833 140.5,229.167 140.5,229.5C 139.391,229.443 138.391,229.11 137.5,228.5C 127.675,227.342 117.675,227.175 107.5,228C 106.295,229.376 104.962,230.542 103.5,231.5C 103.624,229.418 104.624,227.918 106.5,227C 112,226.833 117.5,226.667 123,226.5C 129.075,226.546 134.909,227.213 140.5,228.5 Z"/></g>
<g><path style="opacity:0.894" fill="#de5376" d="M 137.5,228.5 C 127.828,228.334 118.161,228.5 108.5,229C 105.28,231.839 103.614,235.339 103.5,239.5C 103.5,236.833 103.5,234.167 103.5,231.5C 104.962,230.542 106.295,229.376 107.5,228C 117.675,227.175 127.675,227.342 137.5,228.5 Z"/></g>
<g><path style="opacity:0.012" fill="#f7f6f8" d="M 140.5,227.5 C 141.833,228.167 141.833,228.167 140.5,227.5 Z"/></g>
<g><path style="opacity:0.302" fill="#fcfdd9" d="M 31.5,265.5 C 37.0262,265.821 42.3595,265.488 47.5,264.5C 61.0315,264.715 74.3648,264.049 87.5,262.5C 88.5511,261.778 89.2178,260.778 89.5,259.5C 90.1174,259.389 90.6174,259.056 91,258.5C 91.6667,251.5 91.6667,244.5 91,237.5C 91.1523,233.114 89.319,230.114 85.5,228.5C 75.47,227.344 65.47,227.678 55.5,229.5C 55.1667,229.5 54.8333,229.5 54.5,229.5C 46.8261,229.334 39.1594,229.5 31.5,230C 29.3563,230.792 28.023,232.292 27.5,234.5C 27.1667,234.5 26.8333,234.5 26.5,234.5C 26.4521,231.708 27.7854,229.875 30.5,229C 49.4839,227.565 68.4839,226.898 87.5,227C 90.3119,229.076 91.8119,231.91 92,235.5C 92.6667,243.833 92.6667,252.167 92,260.5C 90.8333,261.667 89.6667,262.833 88.5,264C 69.0914,266.031 50.0914,266.531 31.5,265.5 Z"/></g>
<g><path style="opacity:1" fill="#d6dc71" d="M 85.5,228.5 C 75.5138,229.166 65.5138,229.499 55.5,229.5C 65.47,227.678 75.47,227.344 85.5,228.5 Z"/></g>
<g><path style="opacity:1" fill="#e69c39" d="M 306.5,192.5 C 285.164,192.333 263.831,192.5 242.5,193C 242,193.5 241.5,194 241,194.5C 240.5,215.497 240.333,236.497 240.5,257.5C 239.804,241.962 239.137,226.295 238.5,210.5C 238.334,205.821 238.501,201.155 239,196.5C 239.273,194.671 240.107,193.171 241.5,192C 263.337,191.171 285.004,191.337 306.5,192.5 Z"/></g>
<g><path style="opacity:1" fill="#e15b73" d="M 228.5,230.5 C 229.222,230.918 229.722,231.584 230,232.5C 230.824,242.009 230.658,251.343 229.5,260.5C 228.395,261.6 227.062,262.267 225.5,262.5C 225.586,261.504 225.252,260.671 224.5,260C 225.793,259.51 227.127,259.343 228.5,259.5C 228.755,249.755 228.088,240.088 226.5,230.5C 215.548,230.162 204.548,230.162 193.5,230.5C 193.611,229.883 193.944,229.383 194.5,229C 201.142,228.169 207.809,227.669 214.5,227.5C 219.62,226.97 224.287,227.97 228.5,230.5 Z"/></g>
<g><path style="opacity:1" fill="#e59935" d="M 307.5,193.5 C 308.117,193.611 308.617,193.944 309,194.5C 309.577,215.5 310.077,236.5 310.5,257.5C 310.167,257.5 309.833,257.5 309.5,257.5C 309.036,236.128 308.369,214.795 307.5,193.5 Z"/></g>
<g><path style="opacity:1" fill="#c5d21e" d="M 85.5,228.5 C 85.7496,229.922 86.583,230.922 88,231.5C 88.9209,240.813 89.4209,250.147 89.5,259.5C 89.2178,260.778 88.5511,261.778 87.5,262.5C 68.4971,262.667 49.4971,262.5 30.5,262C 30,261.5 29.5,261 29,260.5C 28.3333,252.167 28.3333,243.833 29,235.5C 30.3425,234.098 31.1758,234.431 31.5,236.5C 31.0814,237.672 30.4147,238.672 29.5,239.5C 29.8457,240.696 30.3457,240.696 31,239.5C 31.4995,245.825 31.6662,252.158 31.5,258.5C 33.8205,257.375 36.1538,257.208 38.5,258C 37.8333,250.667 37.1667,243.333 36.5,236C 37.1905,234.933 37.6905,233.766 38,232.5C 43.5261,231.091 49.0261,230.091 54.5,229.5C 54.8333,229.5 55.1667,229.5 55.5,229.5C 65.5138,229.499 75.5138,229.166 85.5,228.5 Z"/></g>
<g><path style="opacity:1" fill="#c6d136" d="M 54.5,229.5 C 49.0261,230.091 43.5261,231.091 38,232.5C 37.6905,233.766 37.1905,234.933 36.5,236C 37.1667,243.333 37.8333,250.667 38.5,258C 36.1538,257.208 33.8205,257.375 31.5,258.5C 31.6662,252.158 31.4995,245.825 31,239.5C 30.3457,240.696 29.8457,240.696 29.5,239.5C 30.4147,238.672 31.0814,237.672 31.5,236.5C 31.1758,234.431 30.3425,234.098 29,235.5C 28.3333,243.833 28.3333,252.167 29,260.5C 29.5,261 30,261.5 30.5,262C 49.4971,262.5 68.4971,262.667 87.5,262.5C 74.3648,264.049 61.0315,264.715 47.5,264.5C 41.8236,264.666 36.1569,264.499 30.5,264C 29.6667,263.167 28.8333,262.333 28,261.5C 27.5002,252.506 27.3336,243.506 27.5,234.5C 28.023,232.292 29.3563,230.792 31.5,230C 39.1594,229.5 46.8261,229.334 54.5,229.5 Z"/></g>
<g><path style="opacity:1" fill="#e72051" d="M 225.5,262.5 C 215.347,263.494 205.014,263.828 194.5,263.5C 194.5,263.167 194.5,262.833 194.5,262.5C 192.88,254.287 191.88,245.953 191.5,237.5C 191.442,234.922 192.109,232.589 193.5,230.5C 204.548,230.162 215.548,230.162 226.5,230.5C 228.088,240.088 228.755,249.755 228.5,259.5C 227.127,259.343 225.793,259.51 224.5,260C 225.252,260.671 225.586,261.504 225.5,262.5 Z"/></g>
<g><path style="opacity:0.517" fill="#f3b3c6" d="M 140.5,229.5 C 141.79,230.058 142.623,231.058 143,232.5C 143.824,241.343 143.657,250.01 142.5,258.5C 142.167,258.5 141.833,258.5 141.5,258.5C 141.782,248.781 141.449,239.114 140.5,229.5 Z"/></g>
<g><path style="opacity:0.039" fill="#fbd1e1" d="M 191.5,230.5 C 190.59,239.461 190.59,248.461 191.5,257.5C 191.167,257.5 190.833,257.5 190.5,257.5C 189.158,249.353 188.658,241.02 189,232.5C 189.708,231.619 190.542,230.953 191.5,230.5 Z"/></g>
<g><path style="opacity:1" fill="#c92e53" d="M 191.5,230.5 C 192.167,230.5 192.833,230.5 193.5,230.5C 192.109,232.589 191.442,234.922 191.5,237.5C 191.88,245.953 192.88,254.287 194.5,262.5C 192.75,261.341 191.75,259.674 191.5,257.5C 190.59,248.461 190.59,239.461 191.5,230.5 Z"/></g>
<g><path style="opacity:1" fill="#e42051" d="M 137.5,228.5 C 138.391,229.11 139.391,229.443 140.5,229.5C 141.449,239.114 141.782,248.781 141.5,258.5C 141.084,260.752 139.751,262.252 137.5,263C 127.167,263.667 116.833,263.667 106.5,263C 104.859,261.871 103.859,260.371 103.5,258.5C 103.5,252.167 103.5,245.833 103.5,239.5C 103.614,235.339 105.28,231.839 108.5,229C 118.161,228.5 127.828,228.334 137.5,228.5 Z"/></g>
<g><path style="opacity:1" fill="#ced758" d="M 85.5,228.5 C 89.319,230.114 91.1523,233.114 91,237.5C 91.6667,244.5 91.6667,251.5 91,258.5C 90.6174,259.056 90.1174,259.389 89.5,259.5C 89.4209,250.147 88.9209,240.813 88,231.5C 86.583,230.922 85.7496,229.922 85.5,228.5 Z"/></g>
<g><path style="opacity:0.368" fill="#f6f8c5" d="M 26.5,234.5 C 26.8333,234.5 27.1667,234.5 27.5,234.5C 27.3336,243.506 27.5002,252.506 28,261.5C 28.8333,262.333 29.6667,263.167 30.5,264C 36.1569,264.499 41.8236,264.666 47.5,264.5C 42.3595,265.488 37.0262,265.821 31.5,265.5C 28.1441,264.975 26.3107,262.975 26,259.5C 25.1768,250.99 25.3434,242.656 26.5,234.5 Z"/></g>
<g><path style="opacity:0.549" fill="#f7bfd0" d="M 103.5,231.5 C 103.5,234.167 103.5,236.833 103.5,239.5C 103.5,245.833 103.5,252.167 103.5,258.5C 103.167,258.5 102.833,258.5 102.5,258.5C 101.837,256.527 101.504,254.361 101.5,252C 101.866,244.986 102.533,238.153 103.5,231.5 Z"/></g>
<g><path style="opacity:0.09" fill="#fdf1cf" d="M 237.5,195.5 C 237.179,200.695 237.513,205.695 238.5,210.5C 239.137,226.295 239.804,241.962 240.5,257.5C 240.937,259.074 241.937,260.241 243.5,261C 250.158,261.5 256.825,261.666 263.5,261.5C 274.5,261.5 285.5,261.5 296.5,261.5C 278.671,262.662 260.671,262.829 242.5,262C 239.311,260.111 237.811,257.278 238,253.5C 237.683,237.16 237.183,220.827 236.5,204.5C 236.502,201.314 236.835,198.314 237.5,195.5 Z"/></g>
<g><path style="opacity:0.702" fill="#f5ba69" d="M 240.5,257.5 C 241.973,258.072 243.307,258.905 244.5,260C 250.825,260.5 257.158,260.666 263.5,260.5C 263.5,260.833 263.5,261.167 263.5,261.5C 256.825,261.666 250.158,261.5 243.5,261C 241.937,260.241 240.937,259.074 240.5,257.5 Z"/></g>
<g><path style="opacity:0.183" fill="#fef0be" d="M 309.5,257.5 C 309.833,257.5 310.167,257.5 310.5,257.5C 310.244,259.776 308.91,260.943 306.5,261C 303.04,261.985 299.706,262.152 296.5,261.5C 285.5,261.5 274.5,261.5 263.5,261.5C 263.5,261.167 263.5,260.833 263.5,260.5C 277.504,260.667 291.504,260.5 305.5,260C 306.984,259.338 308.317,258.504 309.5,257.5 Z"/></g>
<g><path style="opacity:0.051" fill="#fde4ed" d="M 190.5,257.5 C 190.833,257.5 191.167,257.5 191.5,257.5C 191.75,259.674 192.75,261.341 194.5,262.5C 194.5,262.833 194.5,263.167 194.5,263.5C 191.708,262.608 190.375,260.608 190.5,257.5 Z"/></g>
<g><path style="opacity:0.163" fill="#fedce5" d="M 102.5,258.5 C 102.833,258.5 103.167,258.5 103.5,258.5C 103.859,260.371 104.859,261.871 106.5,263C 116.833,263.667 127.167,263.667 137.5,263C 139.751,262.252 141.084,260.752 141.5,258.5C 141.833,258.5 142.167,258.5 142.5,258.5C 142.607,260.903 141.607,262.736 139.5,264C 128.167,264.667 116.833,264.667 105.5,264C 103.329,262.826 102.329,260.993 102.5,258.5 Z"/></g>
<g><path style="opacity:0.143" fill="#fcdee6" d="M 229.5,260.5 C 229.489,262.017 228.823,263.184 227.5,264C 216.326,264.826 205.326,264.659 194.5,263.5C 205.014,263.828 215.347,263.494 225.5,262.5C 227.062,262.267 228.395,261.6 229.5,260.5 Z"/></g>
<g><path style="opacity:0.16" fill="#e4fefe" d="M 306.5,268.5 C 292.833,268.5 279.167,268.5 265.5,268.5C 277.859,267.806 290.359,267.139 303,266.5C 304.459,266.808 305.626,267.475 306.5,268.5 Z"/></g>
<g><path style="opacity:0.058" fill="#e2fafc" d="M 263.5,268.5 C 241.628,269.187 219.628,269.854 197.5,270.5C 197.611,269.883 197.944,269.383 198.5,269C 220.073,268.827 241.573,268.327 263,267.5C 263.399,267.728 263.565,268.062 263.5,268.5 Z"/></g>
<g><path style="opacity:0.004" fill="#f5f8f4" d="M 22.5,270.5 C 21.8333,269.167 21.8333,269.167 22.5,270.5 Z"/></g>
<g><path style="opacity:0.157" fill="#fed6e4" d="M 55.5,270.5 C 55.5,270.833 55.5,271.167 55.5,271.5C 44.4556,270.783 33.4556,270.783 22.5,271.5C 22.5,271.167 22.5,270.833 22.5,270.5C 25.3404,269.88 28.1737,269.213 31,268.5C 39.212,269.708 47.3786,270.375 55.5,270.5 Z"/></g>
<g><path style="opacity:1" fill="#5bbfcb" d="M 309.5,271.5 C 310.167,271.833 310.833,272.167 311.5,272.5C 313.43,276.1 316.097,279.1 319.5,281.5C 322.77,286.44 326.77,290.773 331.5,294.5C 333.343,297.564 333.843,300.897 333,304.5C 332.184,305.823 331.017,306.489 329.5,306.5C 286.161,306.495 242.828,305.995 199.5,305C 198.667,304.167 197.833,303.333 197,302.5C 196.333,292.833 196.333,283.167 197,273.5C 197.75,272.874 198.584,272.374 199.5,272C 234.398,271.125 269.231,270.291 304,269.5C 305.725,270.464 307.559,271.131 309.5,271.5 Z"/></g>
<g><path style="opacity:0.094" fill="#e6fcfd" d="M 306.5,268.5 C 309.367,268.369 311.033,269.703 311.5,272.5C 310.833,272.167 310.167,271.833 309.5,271.5C 308.694,270.272 307.694,269.272 306.5,268.5 Z"/></g>
<g><path style="opacity:1" fill="#d9506c" d="M 55.5,271.5 C 63.6841,271.174 71.6841,271.508 79.5,272.5C 77.8333,272.5 76.1667,272.5 74.5,272.5C 57.4869,272.167 40.4869,272.501 23.5,273.5C 22.7579,274.287 21.9246,274.953 21,275.5C 20.6911,278.942 19.5245,281.942 17.5,284.5C 17.5,283.833 17.5,283.167 17.5,282.5C 18.4552,280.254 19.1218,277.921 19.5,275.5C 19.3284,274.508 19.6618,273.842 20.5,273.5C 21.5,273.167 22.1667,272.5 22.5,271.5C 33.4556,270.783 44.4556,270.783 55.5,271.5 Z"/></g>
<g><path style="opacity:0.034" fill="#fee8f4" d="M 55.5,271.5 C 55.5,271.167 55.5,270.833 55.5,270.5C 82.8253,270.287 110.159,271.12 137.5,273C 139.141,274.129 140.141,275.629 140.5,277.5C 140.167,277.5 139.833,277.5 139.5,277.5C 138.426,276.115 137.093,274.949 135.5,274C 116.846,273 98.179,272.5 79.5,272.5C 71.6841,271.508 63.6841,271.174 55.5,271.5 Z"/></g>
<g><path style="opacity:0.082" fill="#fde9f2" d="M 22.5,271.5 C 22.1667,272.5 21.5,273.167 20.5,273.5C 20.5,272.167 21.1667,271.5 22.5,271.5 Z"/></g>
<g><path style="opacity:1" fill="#e72050" d="M 74.5,272.5 C 75.9516,273.302 77.6183,273.802 79.5,274C 97.1667,274.333 114.833,274.667 132.5,275C 133.949,276.117 135.616,276.784 137.5,277C 138.486,286.75 138.819,296.584 138.5,306.5C 138.167,307.167 137.833,307.833 137.5,308.5C 117.83,308.78 98.4966,309.78 79.5,311.5C 68.8333,311.5 58.1667,311.5 47.5,311.5C 35.1622,311.667 22.8288,311.5 10.5,311C 9.02026,309.701 8.3536,308.034 8.5,306C 9.32215,302.859 9.98882,299.693 10.5,296.5C 12.8176,294.815 13.8176,292.481 13.5,289.5C 13.3284,288.508 13.6618,287.842 14.5,287.5C 15.7281,286.694 16.7281,285.694 17.5,284.5C 19.5245,281.942 20.6911,278.942 21,275.5C 21.9246,274.953 22.7579,274.287 23.5,273.5C 40.4869,272.501 57.4869,272.167 74.5,272.5 Z"/></g>
<g><path style="opacity:1" fill="#d34060" d="M 74.5,272.5 C 76.1667,272.5 77.8333,272.5 79.5,272.5C 98.179,272.5 116.846,273 135.5,274C 137.093,274.949 138.426,276.115 139.5,277.5C 139.827,287.348 139.494,297.014 138.5,306.5C 138.819,296.584 138.486,286.75 137.5,277C 135.616,276.784 133.949,276.117 132.5,275C 114.833,274.667 97.1667,274.333 79.5,274C 77.6183,273.802 75.9516,273.302 74.5,272.5 Z"/></g>
<g><path style="opacity:0.549" fill="#d7f4f8" d="M 311.5,272.5 C 314.903,274.9 317.57,277.9 319.5,281.5C 316.097,279.1 313.43,276.1 311.5,272.5 Z"/></g>
<g><path style="opacity:0.136" fill="#e0fefe" d="M 194.5,273.5 C 194.214,283.885 194.548,294.218 195.5,304.5C 194.053,303.378 193.053,301.878 192.5,300C 193.833,293 193.833,286 192.5,279C 193.109,277.052 193.776,275.218 194.5,273.5 Z"/></g>
<g><path style="opacity:0.035" fill="#fee4f0" d="M 19.5,275.5 C 19.1218,277.921 18.4552,280.254 17.5,282.5C 17.1667,282.5 16.8333,282.5 16.5,282.5C 16.7073,279.759 17.7073,277.426 19.5,275.5 Z"/></g>
<g><path style="opacity:1" fill="#74bfc7" d="M 263.5,268.5 C 264.167,268.5 264.833,268.5 265.5,268.5C 279.167,268.5 292.833,268.5 306.5,268.5C 307.694,269.272 308.694,270.272 309.5,271.5C 307.559,271.131 305.725,270.464 304,269.5C 269.231,270.291 234.398,271.125 199.5,272C 198.584,272.374 197.75,272.874 197,273.5C 196.333,283.167 196.333,292.833 197,302.5C 197.833,303.333 198.667,304.167 199.5,305C 242.828,305.995 286.161,306.495 329.5,306.5C 285.994,307.699 242.328,307.533 198.5,306C 197.756,304.961 196.756,304.461 195.5,304.5C 194.548,294.218 194.214,283.885 194.5,273.5C 194.5,271.5 195.5,270.5 197.5,270.5C 219.628,269.854 241.628,269.187 263.5,268.5 Z"/></g>
<g><path style="opacity:0.773" fill="#f09ab0" d="M 16.5,282.5 C 16.8333,282.5 17.1667,282.5 17.5,282.5C 17.5,283.167 17.5,283.833 17.5,284.5C 16.7281,285.694 15.7281,286.694 14.5,287.5C 14.4021,285.447 15.0687,283.78 16.5,282.5 Z"/></g>
<g><path style="opacity:0.251" fill="#d7f6f7" d="M 319.5,281.5 C 324.23,285.227 328.23,289.56 331.5,294.5C 326.77,290.773 322.77,286.44 319.5,281.5 Z"/></g>
<g><path style="opacity:0.29" fill="#fbc8d6" d="M 139.5,277.5 C 139.833,277.5 140.167,277.5 140.5,277.5C 141.342,287.439 141.175,297.439 140,307.5C 139.292,308.381 138.458,309.047 137.5,309.5C 137.5,309.167 137.5,308.833 137.5,308.5C 137.833,307.833 138.167,307.167 138.5,306.5C 139.494,297.014 139.827,287.348 139.5,277.5 Z"/></g>
<g><path style="opacity:0.043" fill="#facddc" d="M 13.5,289.5 C 13.8176,292.481 12.8176,294.815 10.5,296.5C 10.7073,293.759 11.7073,291.426 13.5,289.5 Z"/></g>
<g><path style="opacity:0.831" fill="#f5b6c7" d="M 10.5,296.5 C 9.98882,299.693 9.32215,302.859 8.5,306C 8.3536,308.034 9.02026,309.701 10.5,311C 22.8288,311.5 35.1622,311.667 47.5,311.5C 47.5,311.833 47.5,312.167 47.5,312.5C 35.5143,313.476 23.5143,313.642 11.5,313C 8.36493,311.734 6.69826,309.401 6.5,306C 7.36768,302.542 8.70101,299.376 10.5,296.5 Z"/></g>
<g><path style="opacity:0.07" fill="#e8fdfd" d="M 331.5,294.5 C 335.709,297.313 336.543,300.979 334,305.5C 333.097,306.701 331.931,307.535 330.5,308C 289.453,308.453 248.453,308.619 207.5,308.5C 204.194,307.837 200.861,307.337 197.5,307C 196.619,306.292 195.953,305.458 195.5,304.5C 196.756,304.461 197.756,304.961 198.5,306C 242.328,307.533 285.994,307.699 329.5,306.5C 331.017,306.489 332.184,305.823 333,304.5C 333.843,300.897 333.343,297.564 331.5,294.5 Z"/></g>
<g><path style="opacity:1" fill="#d4375c" d="M 137.5,308.5 C 137.5,308.833 137.5,309.167 137.5,309.5C 118.214,310.624 98.8807,311.29 79.5,311.5C 98.4966,309.78 117.83,308.78 137.5,308.5 Z"/></g>
<g><path style="opacity:0.118" fill="#fed8e6" d="M 137.5,309.5 C 137.389,310.117 137.056,310.617 136.5,311C 133.776,311.27 131.109,311.77 128.5,312.5C 101.619,312.471 74.619,312.471 47.5,312.5C 47.5,312.167 47.5,311.833 47.5,311.5C 58.1667,311.5 68.8333,311.5 79.5,311.5C 98.8807,311.29 118.214,310.624 137.5,309.5 Z"/></g>
</svg>
